<svg xmlns="http://www.w3.org/2000/svg" xmlns:xlink="http://www.w3.org/1999/xlink" width="500" zoomAndPan="magnify" viewBox="0 0 375 374.999991" height="500" preserveAspectRatio="xMidYMid meet" version="1.0"><defs><g/><clipPath id="96ebd877f3"><path d="M 13.550781 15.488281 L 359.511719 15.488281 L 359.511719 361.449219 L 13.550781 361.449219 Z M 13.550781 15.488281 " clip-rule="nonzero"/></clipPath><clipPath id="0d49c04087"><path d="M 186.53125 15.488281 C 90.996094 15.488281 13.550781 92.933594 13.550781 188.46875 C 13.550781 284.003906 90.996094 361.449219 186.53125 361.449219 C 282.066406 361.449219 359.511719 284.003906 359.511719 188.46875 C 359.511719 92.933594 282.066406 15.488281 186.53125 15.488281 Z M 186.53125 15.488281 " clip-rule="nonzero"/></clipPath><clipPath id="01f5617404"><path d="M 13.550781 15.488281 L 359.511719 15.488281 L 359.511719 361.449219 L 13.550781 361.449219 Z M 13.550781 15.488281 " clip-rule="nonzero"/></clipPath><clipPath id="58d4e22b4f"><path d="M 186.53125 361.449219 C 140.347656 361.449219 96.859375 343.472656 64.230469 310.769531 C 31.527344 278.140625 13.550781 234.652344 13.550781 188.46875 C 13.550781 142.285156 31.527344 98.796875 64.230469 66.164062 C 96.859375 33.464844 140.347656 15.488281 186.53125 15.488281 C 232.714844 15.488281 276.203125 33.464844 308.835938 66.164062 C 341.535156 98.867188 359.511719 142.285156 359.511719 188.46875 C 359.511719 234.652344 341.535156 278.140625 308.835938 310.769531 C 276.203125 343.472656 232.714844 361.449219 186.53125 361.449219 Z M 186.53125 25.859375 C 143.113281 25.859375 102.253906 42.796875 71.558594 73.492188 C 40.859375 104.191406 23.921875 145.050781 23.921875 188.46875 C 23.921875 231.886719 40.859375 272.746094 71.558594 303.441406 C 102.253906 334.140625 143.113281 351.078125 186.53125 351.078125 C 229.949219 351.078125 270.808594 334.140625 301.507812 303.441406 C 332.203125 272.746094 349.140625 231.886719 349.140625 188.46875 C 349.140625 145.050781 332.203125 104.191406 301.507812 73.492188 C 270.808594 42.796875 229.949219 25.859375 186.53125 25.859375 Z M 186.53125 25.859375 " clip-rule="nonzero"/></clipPath><clipPath id="b58041c0b5"><path d="M 95.289062 289.890625 L 279.789062 289.890625 L 279.789062 307.890625 L 95.289062 307.890625 Z M 95.289062 289.890625 " clip-rule="nonzero"/></clipPath><clipPath id="58eff18559"><path d="M 95.289062 115.828125 L 279.789062 115.828125 L 279.789062 187 L 95.289062 187 Z M 95.289062 115.828125 " clip-rule="nonzero"/></clipPath></defs><g clip-path="url(#96ebd877f3)"><g clip-path="url(#0d49c04087)"><path fill="#000000" d="M 13.550781 15.488281 L 359.511719 15.488281 L 359.511719 361.449219 L 13.550781 361.449219 Z M 13.550781 15.488281 " fill-opacity="1" fill-rule="nonzero"/></g></g><g clip-path="url(#01f5617404)"><g clip-path="url(#58d4e22b4f)"><path fill="#84844a" d="M 13.550781 15.488281 L 359.511719 15.488281 L 359.511719 361.449219 L 13.550781 361.449219 Z M 13.550781 15.488281 " fill-opacity="1" fill-rule="nonzero"/></g></g><g fill="#ffffff" fill-opacity="1"><g transform="translate(83.683729, 223.705568)"><g><path d="M -42.640625 -37.234375 L -41.0625 -22.796875 L -2.953125 -26.96875 L -1.609375 -14.78125 L -39.71875 -10.609375 L -38.15625 3.6875 L -48.03125 4.765625 L -52.515625 -36.15625 Z M -42.640625 -37.234375 "/></g></g></g><g fill="#ffffff" fill-opacity="1"><g transform="translate(77.715047, 182.685001)"><g><path d="M 15.78125 -46.703125 L 11.84375 -35.078125 L -5.890625 -41.0625 L -12.265625 -22.171875 L 5.46875 -16.1875 L 1.546875 -4.5625 L -44.109375 -19.984375 L -40.1875 -31.609375 L -21.40625 -25.265625 L -15.03125 -44.15625 L -33.8125 -50.5 L -29.875 -62.125 Z M 15.78125 -46.703125 "/></g></g></g><g fill="#ffffff" fill-opacity="1"><g transform="translate(95.08777, 132.977918)"><g><path d="M 2.3125 -57.375 L -15.53125 -39.203125 L -8.703125 -32.5 L 7.40625 -48.890625 L 14.28125 -42.125 L -1.828125 -25.734375 L 5.09375 -18.9375 L 23.46875 -37.640625 L 30.34375 -30.890625 L 3.375 -3.4375 L -31 -37.203125 L -4.5625 -64.125 Z M 2.3125 -57.375 "/></g></g></g><g fill="#ffffff" fill-opacity="1"><g transform="translate(130.610185, 100.54866)"><g/></g></g><g fill="#ffffff" fill-opacity="1"><g transform="translate(144.97887, 89.64468)"><g><path d="M 48.75 -7.265625 L 36.625 -5.453125 L 33.859375 -23.96875 L 14.125 -21.03125 L 16.890625 -2.515625 L 4.765625 -0.703125 L -2.34375 -48.359375 L 9.78125 -50.171875 L 12.703125 -30.5625 L 32.4375 -33.5 L 29.515625 -53.109375 L 41.640625 -54.921875 Z M 48.75 -7.265625 "/></g></g></g><g fill="#ffffff" fill-opacity="1"><g transform="translate(196.526856, 81.321711)"><g><path d="M 42.15625 -36.765625 C 49.21875 -34.296875 54.316406 -30.039062 57.453125 -24 C 60.597656 -17.96875 61.019531 -11.660156 58.71875 -5.078125 C 56.40625 1.554688 52.117188 6.28125 45.859375 9.09375 C 39.597656 11.914062 32.957031 12.097656 25.9375 9.640625 C 18.914062 7.191406 13.84375 2.929688 10.71875 -3.140625 C 7.59375 -9.210938 7.195312 -15.585938 9.53125 -22.265625 C 11.851562 -28.898438 16.113281 -33.585938 22.3125 -36.328125 C 28.519531 -39.066406 35.132812 -39.210938 42.15625 -36.765625 Z M 38.90625 -27.03125 C 35.363281 -28.269531 31.882812 -28.035156 28.46875 -26.328125 C 25.050781 -24.628906 22.675781 -21.867188 21.34375 -18.046875 C 20.007812 -14.234375 20.148438 -10.570312 21.765625 -7.0625 C 23.378906 -3.5625 25.941406 -1.203125 29.453125 0.015625 C 32.960938 1.242188 36.398438 0.976562 39.765625 -0.78125 C 43.128906 -2.550781 45.476562 -5.34375 46.8125 -9.15625 C 48.144531 -12.976562 48.035156 -16.601562 46.484375 -20.03125 C 44.941406 -23.46875 42.414062 -25.800781 38.90625 -27.03125 Z M 38.90625 -27.03125 "/></g></g></g><g fill="#ffffff" fill-opacity="1"><g transform="translate(247.083181, 98.922474)"><g><path d="M 68.125 1.90625 L 47.8125 21.109375 C 43.175781 25.492188 38.144531 27.535156 32.71875 27.234375 C 27.289062 26.929688 22.265625 24.332031 17.640625 19.4375 C 12.972656 14.5 10.613281 9.285156 10.5625 3.796875 C 10.519531 -1.679688 12.816406 -6.613281 17.453125 -11 L 37.765625 -30.203125 L 46.1875 -21.296875 L 25.875 -2.09375 C 23.539062 0.113281 22.316406 2.546875 22.203125 5.203125 C 22.097656 7.859375 23.066406 10.269531 25.109375 12.4375 C 27.128906 14.570312 29.429688 15.632812 32.015625 15.625 C 34.597656 15.613281 37.070312 14.488281 39.4375 12.25 L 59.75 -6.953125 Z M 68.125 1.90625 "/></g></g></g><g fill="#ffffff" fill-opacity="1"><g transform="translate(281.70778, 136.439625)"><g><path d="M 53.609375 6.734375 C 55.890625 13.566406 56.203125 20.144531 54.546875 26.46875 L 43.984375 25.09375 C 44.585938 22.25 44.878906 19.304688 44.859375 16.265625 C 44.835938 13.222656 44.515625 10.769531 43.890625 8.90625 C 42.773438 5.539062 41.101562 4.226562 38.875 4.96875 C 37.445312 5.4375 36.570312 6.644531 36.25 8.59375 C 35.9375 10.539062 35.859375 12.804688 36.015625 15.390625 C 36.171875 17.972656 36.195312 20.601562 36.09375 23.28125 C 35.988281 25.957031 35.207031 28.457031 33.75 30.78125 C 32.300781 33.101562 30.050781 34.769531 27 35.78125 C 22.601562 37.25 18.601562 36.664062 15 34.03125 C 11.394531 31.40625 8.707031 27.441406 6.9375 22.140625 C 5.675781 18.347656 5.082031 14.382812 5.15625 10.25 C 5.226562 6.113281 5.941406 2.296875 7.296875 -1.203125 L 17.75 0.328125 C 16.5 3.304688 15.753906 6.578125 15.515625 10.140625 C 15.285156 13.703125 15.578125 16.703125 16.390625 19.140625 C 17.015625 21.015625 17.835938 22.363281 18.859375 23.1875 C 19.890625 24.007812 21.054688 24.203125 22.359375 23.765625 C 23.617188 23.335938 24.472656 22.378906 24.921875 20.890625 C 25.367188 19.410156 25.5 17.710938 25.3125 15.796875 C 25.132812 13.878906 25.046875 11.753906 25.046875 9.421875 C 25.046875 7.097656 25.164062 4.90625 25.40625 2.84375 C 25.644531 0.789062 26.460938 -1.132812 27.859375 -2.9375 C 29.265625 -4.738281 31.234375 -6.0625 33.765625 -6.90625 C 37.941406 -8.300781 41.832031 -7.75 45.4375 -5.25 C 49.050781 -2.75 51.773438 1.242188 53.609375 6.734375 Z M 53.609375 6.734375 "/></g></g></g><g fill="#ffffff" fill-opacity="1"><g transform="translate(295.880541, 177.978674)"><g><path d="M 34.4375 45.921875 L 36.796875 20.5625 L 27.28125 19.6875 L 25.15625 42.578125 L 15.5625 41.6875 L 17.6875 18.796875 L 8.015625 17.890625 L 5.578125 44 L -4.015625 43.109375 L -0.453125 4.796875 L 47.53125 9.265625 L 44.046875 46.828125 Z M 34.4375 45.921875 "/></g></g></g><g clip-path="url(#b58041c0b5)"><path fill="#c2a15e" d="M 279.679688 300.574219 C 279.660156 300.125 279.433594 299.75 279.082031 299.539062 C 277.414062 297.996094 275.625 296.585938 273.746094 295.3125 C 273.222656 294.957031 272.386719 295.195312 272.09375 295.746094 C 271.769531 296.355469 271.96875 297.019531 272.527344 297.398438 C 272.984375 297.710938 273.4375 298.027344 273.882812 298.355469 C 274.105469 298.515625 274.328125 298.683594 274.546875 298.847656 C 274.566406 298.867188 274.589844 298.882812 274.613281 298.902344 C 274.648438 298.929688 274.683594 298.957031 274.71875 298.980469 C 274.824219 299.066406 274.933594 299.152344 275.039062 299.238281 C 271.027344 299.089844 267.011719 298.953125 262.996094 298.835938 C 258.574219 298.703125 254.152344 298.597656 249.730469 298.515625 C 245.570312 298.445312 241.414062 298.394531 237.257812 298.371094 C 232.890625 298.34375 228.523438 298.339844 224.15625 298.347656 C 219.128906 298.359375 214.105469 298.382812 209.078125 298.40625 C 208.371094 298.410156 207.664062 298.414062 206.960938 298.417969 C 206.890625 298.417969 206.824219 298.429688 206.757812 298.441406 C 206.691406 298.089844 206.59375 297.742188 206.460938 297.40625 C 205.957031 296.097656 205.1875 294.921875 204.285156 293.859375 C 203.464844 292.886719 202.46875 292.039062 201.375 291.394531 C 200.140625 290.667969 198.789062 290.242188 197.375 290.058594 C 196.078125 289.894531 194.695312 290 193.460938 290.449219 C 192.292969 290.878906 191.253906 291.546875 190.371094 292.421875 C 189.578125 293.210938 188.921875 294.132812 188.304688 295.058594 C 188.007812 295.496094 187.722656 295.9375 187.429688 296.378906 C 187.28125 296.597656 187.132812 296.816406 186.980469 297.03125 C 186.910156 297.132812 186.839844 297.234375 186.765625 297.332031 C 186.726562 297.382812 186.6875 297.4375 186.648438 297.488281 C 186.421875 297.738281 186.230469 298.027344 186.015625 298.285156 C 185.625 298.753906 185.257812 299.242188 184.910156 299.742188 C 184.316406 300.605469 183.769531 301.496094 183.15625 302.34375 C 183.085938 302.441406 183.015625 302.539062 182.941406 302.636719 C 182.90625 302.679688 182.875 302.726562 182.835938 302.769531 C 182.675781 302.96875 182.503906 303.167969 182.332031 303.359375 C 182.15625 303.546875 181.96875 303.730469 181.78125 303.90625 C 181.691406 303.984375 181.601562 304.066406 181.507812 304.140625 C 181.496094 304.152344 181.480469 304.164062 181.464844 304.175781 C 181.507812 304.144531 181.53125 304.125 181.488281 304.160156 C 181.480469 304.167969 181.472656 304.171875 181.464844 304.179688 C 181.429688 304.210938 181.394531 304.246094 181.351562 304.265625 C 181.347656 304.265625 181.367188 304.253906 181.390625 304.234375 C 181.382812 304.238281 181.378906 304.238281 181.375 304.242188 C 181 304.515625 180.597656 304.746094 180.175781 304.941406 C 179.703125 305.125 179.210938 305.257812 178.710938 305.332031 C 178.117188 305.394531 177.515625 305.390625 176.925781 305.328125 C 176.230469 305.222656 175.550781 305.039062 174.894531 304.78125 C 174.328125 304.527344 173.785156 304.21875 173.273438 303.855469 C 173.210938 303.8125 173.152344 303.765625 173.089844 303.71875 C 173.085938 303.71875 173.085938 303.71875 173.082031 303.71875 C 172.953125 303.613281 172.828125 303.507812 172.703125 303.402344 C 172.460938 303.1875 172.230469 302.96875 172.007812 302.734375 C 171.789062 302.503906 171.578125 302.265625 171.378906 302.019531 C 171.324219 301.953125 171.273438 301.886719 171.21875 301.820312 C 171.277344 301.894531 171.3125 301.933594 171.332031 301.957031 C 171.304688 301.921875 171.246094 301.847656 171.21875 301.816406 C 171.132812 301.699219 171.046875 301.578125 170.964844 301.457031 C 170.597656 300.921875 170.261719 300.355469 169.996094 299.757812 C 169.863281 299.410156 169.757812 299.050781 169.691406 298.6875 C 169.675781 298.460938 169.671875 298.238281 169.691406 298.015625 C 169.726562 297.828125 169.777344 297.644531 169.84375 297.464844 C 169.886719 297.375 169.929688 297.289062 169.980469 297.207031 C 170.023438 297.128906 170.070312 297.054688 170.121094 296.980469 C 170.132812 296.960938 170.160156 296.925781 170.183594 296.890625 C 170.210938 296.859375 170.242188 296.816406 170.257812 296.800781 C 170.3125 296.742188 170.371094 296.679688 170.425781 296.621094 C 170.546875 296.496094 170.675781 296.375 170.8125 296.261719 C 170.824219 296.25 170.851562 296.226562 170.882812 296.207031 C 170.925781 296.175781 171 296.121094 171.019531 296.105469 C 171.164062 296.003906 171.3125 295.910156 171.464844 295.820312 C 171.746094 295.648438 172.042969 295.503906 172.339844 295.371094 C 172.648438 295.246094 172.964844 295.136719 173.285156 295.042969 C 173.296875 295.480469 173.363281 295.917969 173.480469 296.328125 C 173.847656 297.640625 174.691406 298.792969 175.921875 299.414062 C 177.085938 300 178.53125 300.234375 179.773438 299.742188 C 180.484375 299.460938 181.058594 299.046875 181.496094 298.414062 C 181.839844 297.921875 182.003906 297.292969 182.019531 296.703125 C 182.035156 296.089844 181.855469 295.457031 181.546875 294.929688 C 181.304688 294.519531 180.992188 294.109375 180.644531 293.785156 C 179.78125 292.992188 178.648438 292.535156 177.5 292.363281 C 176.636719 292.234375 175.757812 292.207031 174.878906 292.28125 C 174.835938 292.28125 174.792969 292.285156 174.746094 292.292969 C 173.203125 292.441406 171.683594 292.902344 170.34375 293.667969 C 169.316406 294.253906 168.332031 295.097656 167.789062 296.167969 C 167.390625 296.949219 167.230469 297.796875 167.273438 298.644531 C 162.859375 298.722656 158.441406 298.808594 154.027344 298.902344 C 149.367188 299 144.703125 299.109375 140.039062 299.226562 C 135.296875 299.351562 130.554688 299.484375 125.8125 299.632812 C 121.121094 299.785156 116.425781 299.949219 111.730469 300.132812 C 107.78125 300.289062 103.828125 300.464844 99.875 300.65625 C 100.722656 299.929688 101.570312 299.203125 102.421875 298.472656 C 102.902344 298.0625 102.875 297.183594 102.421875 296.765625 C 101.90625 296.296875 101.226562 296.328125 100.710938 296.765625 C 99.019531 298.214844 97.335938 299.660156 95.644531 301.109375 C 95.425781 301.296875 95.3125 301.574219 95.296875 301.867188 C 95.289062 301.921875 95.289062 301.976562 95.289062 302.035156 C 95.308594 302.449219 95.535156 302.855469 95.882812 303.078125 C 95.949219 303.144531 96.03125 303.203125 96.121094 303.253906 C 97.117188 303.792969 98.070312 304.398438 98.976562 305.082031 C 99.003906 305.101562 99.03125 305.125 99.058594 305.144531 C 99.078125 305.160156 99.097656 305.175781 99.117188 305.191406 C 99.222656 305.277344 99.335938 305.363281 99.441406 305.449219 C 99.65625 305.625 99.867188 305.808594 100.074219 305.992188 C 100.480469 306.355469 100.875 306.738281 101.253906 307.136719 C 101.695312 307.59375 102.53125 307.609375 102.964844 307.136719 C 103.414062 306.644531 103.429688 305.914062 102.964844 305.425781 C 102.140625 304.566406 101.242188 303.773438 100.289062 303.058594 C 103.542969 302.898438 106.800781 302.753906 110.058594 302.625 C 114.714844 302.433594 119.375 302.265625 124.039062 302.113281 C 128.78125 301.960938 133.519531 301.820312 138.261719 301.695312 C 142.957031 301.574219 147.65625 301.457031 152.351562 301.355469 C 156.878906 301.257812 161.40625 301.167969 165.933594 301.085938 C 166.492188 301.078125 167.046875 301.066406 167.601562 301.054688 C 167.707031 301.054688 167.816406 301.035156 167.917969 301.003906 C 168.410156 302.0625 169.074219 303.03125 169.824219 303.921875 C 170.644531 304.894531 171.640625 305.742188 172.734375 306.386719 C 173.972656 307.113281 175.320312 307.539062 176.734375 307.722656 C 178.03125 307.886719 179.417969 307.785156 180.648438 307.332031 C 181.816406 306.90625 182.855469 306.234375 183.738281 305.359375 C 184.53125 304.570312 185.1875 303.648438 185.804688 302.726562 C 186.101562 302.285156 186.386719 301.84375 186.683594 301.402344 C 186.828125 301.183594 186.976562 300.96875 187.128906 300.75 C 187.203125 300.648438 187.273438 300.550781 187.347656 300.449219 C 187.386719 300.398438 187.421875 300.347656 187.460938 300.292969 C 187.691406 300.042969 187.878906 299.757812 188.09375 299.496094 C 188.484375 299.027344 188.851562 298.539062 189.199219 298.039062 C 189.796875 297.175781 190.34375 296.285156 190.953125 295.4375 C 191.023438 295.339844 191.09375 295.246094 191.167969 295.144531 C 191.203125 295.101562 191.238281 295.058594 191.273438 295.015625 C 191.4375 294.8125 191.605469 294.613281 191.78125 294.425781 C 191.957031 294.234375 192.140625 294.050781 192.332031 293.878906 C 192.417969 293.796875 192.507812 293.71875 192.605469 293.640625 C 192.617188 293.632812 192.628906 293.617188 192.644531 293.605469 C 192.605469 293.636719 192.578125 293.65625 192.621094 293.621094 C 192.632812 293.617188 192.636719 293.609375 192.648438 293.601562 C 192.679688 293.570312 192.71875 293.535156 192.757812 293.515625 C 192.765625 293.515625 192.746094 293.53125 192.722656 293.546875 C 192.726562 293.546875 192.730469 293.542969 192.734375 293.539062 C 193.109375 293.265625 193.515625 293.035156 193.933594 292.839844 C 194.40625 292.65625 194.898438 292.523438 195.402344 292.449219 C 195.992188 292.386719 196.59375 292.390625 197.1875 292.453125 C 197.878906 292.558594 198.558594 292.742188 199.214844 293 C 199.78125 293.257812 200.328125 293.5625 200.835938 293.925781 C 200.898438 293.96875 200.960938 294.015625 201.023438 294.0625 C 201.023438 294.0625 201.023438 294.0625 201.027344 294.0625 C 201.15625 294.167969 201.28125 294.273438 201.410156 294.382812 C 201.652344 294.59375 201.882812 294.8125 202.101562 295.046875 C 202.320312 295.277344 202.535156 295.515625 202.734375 295.765625 C 202.785156 295.828125 202.835938 295.894531 202.890625 295.960938 C 202.832031 295.890625 202.796875 295.851562 202.78125 295.828125 C 202.808594 295.863281 202.867188 295.933594 202.894531 295.964844 C 202.980469 296.082031 203.066406 296.203125 203.148438 296.324219 C 203.515625 296.859375 203.851562 297.425781 204.117188 298.027344 C 204.25 298.375 204.355469 298.730469 204.421875 299.09375 C 204.4375 299.320312 204.441406 299.539062 204.421875 299.765625 C 204.386719 299.953125 204.335938 300.136719 204.269531 300.320312 C 204.226562 300.40625 204.183594 300.492188 204.132812 300.578125 C 204.089844 300.652344 204.042969 300.726562 203.992188 300.800781 C 203.980469 300.816406 203.953125 300.855469 203.929688 300.890625 C 203.902344 300.925781 203.871094 300.964844 203.855469 300.980469 C 203.800781 301.039062 203.746094 301.101562 203.6875 301.160156 C 203.566406 301.285156 203.4375 301.40625 203.300781 301.519531 C 203.289062 301.53125 203.261719 301.554688 203.230469 301.574219 C 203.1875 301.605469 203.113281 301.660156 203.09375 301.675781 C 202.949219 301.777344 202.800781 301.875 202.648438 301.960938 C 202.367188 302.132812 202.074219 302.277344 201.773438 302.410156 C 201.464844 302.539062 201.148438 302.644531 200.828125 302.738281 C 200.820312 302.300781 200.75 301.863281 200.632812 301.453125 C 200.265625 300.140625 199.421875 298.988281 198.191406 298.367188 C 197.03125 297.78125 195.582031 297.546875 194.339844 298.039062 C 193.628906 298.320312 193.054688 298.734375 192.617188 299.367188 C 192.273438 299.859375 192.109375 300.488281 192.09375 301.082031 C 192.078125 301.691406 192.257812 302.324219 192.566406 302.851562 C 192.808594 303.261719 193.121094 303.675781 193.46875 303.996094 C 194.335938 304.789062 195.464844 305.246094 196.613281 305.421875 C 197.476562 305.550781 198.355469 305.574219 199.234375 305.5 C 199.277344 305.5 199.320312 305.496094 199.367188 305.492188 C 200.910156 305.339844 202.429688 304.878906 203.769531 304.113281 C 204.796875 303.527344 205.78125 302.683594 206.324219 301.617188 C 206.460938 301.347656 206.570312 301.074219 206.648438 300.796875 C 206.75 300.824219 206.855469 300.839844 206.964844 300.839844 C 212.132812 300.8125 217.292969 300.789062 222.460938 300.773438 C 226.886719 300.761719 231.308594 300.761719 235.734375 300.78125 C 239.890625 300.804688 244.050781 300.84375 248.207031 300.910156 C 252.570312 300.980469 256.9375 301.082031 261.304688 301.207031 C 265.714844 301.328125 270.128906 301.476562 274.542969 301.640625 C 273.710938 302.234375 272.90625 302.882812 272.148438 303.566406 C 271.679688 303.992188 271.683594 304.851562 272.148438 305.277344 C 272.652344 305.738281 273.355469 305.726562 273.855469 305.277344 C 274.210938 304.957031 274.574219 304.644531 274.945312 304.347656 C 275.027344 304.28125 275.113281 304.210938 275.195312 304.148438 C 275.195312 304.148438 275.199219 304.144531 275.199219 304.144531 C 275.230469 304.121094 275.261719 304.097656 275.292969 304.074219 C 275.484375 303.929688 275.679688 303.785156 275.875 303.648438 C 276.660156 303.085938 277.472656 302.574219 278.3125 302.105469 C 278.457031 302.023438 278.578125 301.90625 278.675781 301.773438 C 279.222656 301.679688 279.707031 301.140625 279.679688 300.574219 Z M 178.195312 295.035156 C 178.367188 295.117188 178.539062 295.203125 178.699219 295.308594 C 178.742188 295.335938 178.785156 295.367188 178.828125 295.394531 C 178.910156 295.460938 178.988281 295.535156 179.058594 295.605469 C 179.101562 295.648438 179.140625 295.691406 179.175781 295.734375 C 179.179688 295.738281 179.179688 295.738281 179.183594 295.742188 C 179.214844 295.789062 179.246094 295.835938 179.277344 295.878906 C 179.367188 296 179.449219 296.125 179.519531 296.253906 C 179.550781 296.347656 179.578125 296.441406 179.597656 296.542969 C 179.601562 296.609375 179.601562 296.675781 179.597656 296.746094 C 179.578125 296.828125 179.558594 296.90625 179.53125 296.988281 C 179.503906 297.035156 179.476562 297.085938 179.445312 297.132812 C 179.417969 297.160156 179.394531 297.1875 179.367188 297.214844 C 179.339844 297.242188 179.304688 297.269531 179.277344 297.296875 C 179.195312 297.351562 179.105469 297.398438 179.019531 297.441406 C 178.875 297.492188 178.726562 297.53125 178.574219 297.5625 C 178.371094 297.578125 178.167969 297.578125 177.964844 297.558594 C 177.722656 297.515625 177.488281 297.449219 177.257812 297.363281 C 177.09375 297.289062 176.929688 297.203125 176.777344 297.105469 C 176.738281 297.078125 176.695312 297.050781 176.65625 297.023438 C 176.636719 297.003906 176.609375 296.988281 176.597656 296.976562 C 176.558594 296.9375 176.519531 296.902344 176.480469 296.863281 C 176.414062 296.800781 176.351562 296.734375 176.292969 296.671875 C 176.308594 296.6875 176.320312 296.707031 176.332031 296.730469 C 176.316406 296.703125 176.296875 296.679688 176.277344 296.65625 C 176.277344 296.652344 176.277344 296.652344 176.273438 296.648438 C 176.230469 296.601562 176.191406 296.527344 176.207031 296.546875 C 176.101562 296.382812 176.007812 296.207031 175.925781 296.027344 C 175.832031 295.777344 175.761719 295.519531 175.714844 295.257812 C 175.699219 295.058594 175.699219 294.855469 175.714844 294.65625 C 175.714844 294.648438 175.714844 294.644531 175.714844 294.640625 C 176.105469 294.632812 176.492188 294.648438 176.875 294.6875 C 177.328125 294.765625 177.765625 294.871094 178.195312 295.035156 Z M 186.585938 297.550781 C 186.480469 297.6875 186.585938 297.546875 186.640625 297.480469 C 186.621094 297.503906 186.601562 297.527344 186.585938 297.550781 Z M 187.46875 300.292969 C 187.488281 300.273438 187.503906 300.246094 187.519531 300.226562 C 187.621094 300.089844 187.519531 300.230469 187.46875 300.292969 Z M 195.910156 302.738281 C 195.734375 302.660156 195.566406 302.570312 195.402344 302.464844 C 195.359375 302.4375 195.316406 302.410156 195.273438 302.378906 C 195.195312 302.3125 195.117188 302.242188 195.042969 302.167969 C 195.003906 302.125 194.964844 302.085938 194.925781 302.039062 C 194.925781 302.035156 194.925781 302.035156 194.921875 302.035156 C 194.890625 301.988281 194.855469 301.941406 194.824219 301.898438 C 194.738281 301.773438 194.652344 301.652344 194.585938 301.519531 C 194.554688 301.429688 194.527344 301.332031 194.507812 301.234375 C 194.503906 301.167969 194.503906 301.097656 194.507812 301.03125 C 194.523438 300.949219 194.546875 300.867188 194.574219 300.789062 C 194.601562 300.738281 194.628906 300.691406 194.660156 300.644531 C 194.683594 300.617188 194.710938 300.589844 194.738281 300.5625 C 194.765625 300.535156 194.796875 300.507812 194.828125 300.476562 C 194.910156 300.421875 195 300.375 195.085938 300.332031 C 195.230469 300.285156 195.382812 300.246094 195.53125 300.214844 C 195.734375 300.199219 195.9375 300.199219 196.140625 300.21875 C 196.382812 300.261719 196.617188 300.324219 196.847656 300.410156 C 197.015625 300.488281 197.175781 300.574219 197.332031 300.671875 C 197.371094 300.695312 197.410156 300.722656 197.449219 300.75 C 197.472656 300.769531 197.496094 300.789062 197.507812 300.800781 C 197.546875 300.835938 197.589844 300.875 197.628906 300.910156 C 197.691406 300.972656 197.753906 301.039062 197.8125 301.105469 C 197.800781 301.085938 197.789062 301.066406 197.777344 301.046875 C 197.792969 301.070312 197.808594 301.097656 197.828125 301.121094 C 197.832031 301.125 197.832031 301.125 197.835938 301.125 C 197.878906 301.175781 197.917969 301.25 197.898438 301.226562 C 198.007812 301.394531 198.097656 301.570312 198.183594 301.746094 C 198.273438 302 198.34375 302.253906 198.390625 302.519531 C 198.410156 302.71875 198.410156 302.917969 198.394531 303.121094 C 198.394531 303.128906 198.390625 303.128906 198.390625 303.136719 C 198.003906 303.144531 197.621094 303.128906 197.230469 303.085938 C 196.78125 303.011719 196.339844 302.902344 195.910156 302.738281 Z M 195.910156 302.738281 " fill-opacity="1" fill-rule="nonzero"/></g><path fill="#84844a" d="M 144.445312 219.527344 C 129.945312 220.765625 104.136719 232.664062 104.136719 232.664062 C 104.136719 232.664062 130.964844 224.757812 145.066406 224.304688 C 172.234375 223.429688 198.242188 236.617188 225.375 235.292969 C 240.609375 234.546875 269.09375 224.78125 269.09375 224.78125 C 269.09375 224.78125 239.96875 230.78125 225.066406 230.753906 C 197.757812 230.703125 171.589844 217.199219 144.445312 219.527344 Z M 144.445312 219.527344 " fill-opacity="1" fill-rule="nonzero"/><g clip-path="url(#58eff18559)"><path fill="#84844a" d="M 243.84375 151.527344 L 279.699219 178.46875 L 243.84375 147.300781 L 242.027344 147.492188 L 217.363281 127.40625 L 203.367188 127.40625 L 189.609375 115.835938 L 167.84375 115.835938 L 95.285156 173.996094 L 117.050781 173.996094 L 189.609375 119.472656 L 230.097656 151.773438 L 205.019531 174.769531 L 217.484375 174.769531 L 237.164062 157.414062 L 273.765625 186.613281 L 238.082031 156.601562 Z M 233.828125 148.355469 L 231.171875 150.789062 L 211.527344 134.269531 L 217.101562 130.246094 L 240.410156 147.660156 Z M 233.828125 148.355469 " fill-opacity="1" fill-rule="nonzero"/></g><path fill="#84844a" d="M 178.011719 148.082031 L 188.570312 148.082031 L 188.570312 159.382812 L 178.011719 159.382812 Z M 178.011719 148.082031 " fill-opacity="1" fill-rule="nonzero"/><path fill="#84844a" d="M 190.816406 148.082031 L 201.375 148.082031 L 201.375 159.382812 L 190.816406 159.382812 Z M 190.816406 148.082031 " fill-opacity="1" fill-rule="nonzero"/><path fill="#84844a" d="M 178.015625 161.234375 L 188.574219 161.234375 L 188.574219 172.535156 L 178.015625 172.535156 Z M 178.015625 161.234375 " fill-opacity="1" fill-rule="nonzero"/><path fill="#84844a" d="M 190.875 161.164062 L 201.433594 161.164062 L 201.433594 172.464844 L 190.875 172.464844 Z M 190.875 161.164062 " fill-opacity="1" fill-rule="nonzero"/><g fill="#ffd37a" fill-opacity="1"><g transform="translate(46.433442, 269.784828)"><g><path d="M 22.5 -20.390625 L 9.03125 -20.390625 L 9.03125 -15.328125 L 21.1875 -15.328125 L 21.1875 -10.234375 L 9.03125 -10.234375 L 9.03125 -5.09375 L 22.90625 -5.09375 L 22.90625 0 L 2.546875 0 L 2.546875 -25.484375 L 22.5 -25.484375 Z M 22.5 -20.390625 "/></g></g></g><g fill="#ffd37a" fill-opacity="1"><g transform="translate(79.161178, 269.784828)"><g><path d="M 17.328125 -13.328125 L 26.46875 0 L 18.71875 0 L 13.21875 -8.125 L 7.71875 0 L 0.1875 0 L 9.28125 -13.03125 L 0.765625 -25.484375 L 8.296875 -25.484375 L 13.21875 -18.0625 L 18.125 -25.484375 L 25.734375 -25.484375 Z M 17.328125 -13.328125 "/></g></g></g><g fill="#ffd37a" fill-opacity="1"><g transform="translate(114.07312, 269.784828)"><g><path d="M 14.484375 -25.703125 C 16.378906 -25.703125 18.242188 -25.3125 20.078125 -24.53125 C 21.910156 -23.757812 23.46875 -22.71875 24.75 -21.40625 L 21 -16.96875 C 20.175781 -17.988281 19.1875 -18.796875 18.03125 -19.390625 C 16.882812 -19.984375 15.738281 -20.28125 14.59375 -20.28125 C 12.582031 -20.28125 10.894531 -19.566406 9.53125 -18.140625 C 8.175781 -16.722656 7.5 -14.972656 7.5 -12.890625 C 7.5 -10.753906 8.175781 -8.96875 9.53125 -7.53125 C 10.894531 -6.101562 12.582031 -5.390625 14.59375 -5.390625 C 15.664062 -5.390625 16.773438 -5.65625 17.921875 -6.1875 C 19.078125 -6.71875 20.101562 -7.445312 21 -8.375 L 24.796875 -4.375 C 23.410156 -2.957031 21.773438 -1.820312 19.890625 -0.96875 C 18.015625 -0.125 16.140625 0.296875 14.265625 0.296875 C 10.429688 0.296875 7.238281 -0.953125 4.6875 -3.453125 C 2.144531 -5.953125 0.875 -9.070312 0.875 -12.8125 C 0.875 -16.476562 2.171875 -19.539062 4.765625 -22 C 7.367188 -24.46875 10.609375 -25.703125 14.484375 -25.703125 Z M 14.484375 -25.703125 "/></g></g></g><g fill="#ffd37a" fill-opacity="1"><g transform="translate(147.456114, 269.784828)"><g><path d="M 9.03125 -5.421875 L 19.84375 -5.421875 L 19.84375 0 L 2.546875 0 L 2.546875 -25.484375 L 9.03125 -25.484375 Z M 9.03125 -5.421875 "/></g></g></g><g fill="#ffd37a" fill-opacity="1"><g transform="translate(176.033827, 269.784828)"><g><path d="M 25.484375 -25.484375 L 25.484375 -10.703125 C 25.484375 -7.328125 24.4375 -4.648438 22.34375 -2.671875 C 20.257812 -0.691406 17.4375 0.296875 13.875 0.296875 C 10.28125 0.296875 7.421875 -0.691406 5.296875 -2.671875 C 3.171875 -4.648438 2.109375 -7.328125 2.109375 -10.703125 L 2.109375 -25.484375 L 8.59375 -25.484375 L 8.59375 -10.703125 C 8.59375 -9.003906 9.082031 -7.648438 10.0625 -6.640625 C 11.050781 -5.640625 12.332031 -5.140625 13.90625 -5.140625 C 15.457031 -5.140625 16.703125 -5.632812 17.640625 -6.625 C 18.578125 -7.625 19.046875 -8.984375 19.046875 -10.703125 L 19.046875 -25.484375 Z M 25.484375 -25.484375 "/></g></g></g><g fill="#ffd37a" fill-opacity="1"><g transform="translate(211.819463, 269.784828)"><g><path d="M 12.34375 -25.78125 C 16.15625 -25.78125 19.503906 -24.832031 22.390625 -22.9375 L 19.953125 -17.875 C 18.617188 -18.65625 17.1875 -19.289062 15.65625 -19.78125 C 14.125 -20.28125 12.835938 -20.53125 11.796875 -20.53125 C 9.929688 -20.53125 9 -19.910156 9 -18.671875 C 9 -17.867188 9.457031 -17.222656 10.375 -16.734375 C 11.300781 -16.253906 12.425781 -15.835938 13.75 -15.484375 C 15.070312 -15.140625 16.394531 -14.71875 17.71875 -14.21875 C 19.039062 -13.71875 20.160156 -12.910156 21.078125 -11.796875 C 22.003906 -10.679688 22.46875 -9.273438 22.46875 -7.578125 C 22.46875 -5.117188 21.503906 -3.203125 19.578125 -1.828125 C 17.660156 -0.460938 15.222656 0.21875 12.265625 0.21875 C 10.160156 0.21875 8.070312 -0.144531 6 -0.875 C 3.9375 -1.601562 2.144531 -2.597656 0.625 -3.859375 L 3.125 -8.84375 C 4.414062 -7.726562 5.929688 -6.8125 7.671875 -6.09375 C 9.421875 -5.382812 10.976562 -5.03125 12.34375 -5.03125 C 13.382812 -5.03125 14.195312 -5.21875 14.78125 -5.59375 C 15.363281 -5.96875 15.65625 -6.519531 15.65625 -7.25 C 15.65625 -7.945312 15.320312 -8.53125 14.65625 -9 C 13.988281 -9.476562 13.15625 -9.832031 12.15625 -10.0625 C 11.164062 -10.289062 10.085938 -10.597656 8.921875 -10.984375 C 7.753906 -11.378906 6.671875 -11.804688 5.671875 -12.265625 C 4.679688 -12.722656 3.851562 -13.457031 3.1875 -14.46875 C 2.519531 -15.476562 2.1875 -16.6875 2.1875 -18.09375 C 2.1875 -20.425781 3.113281 -22.289062 4.96875 -23.6875 C 6.820312 -25.082031 9.28125 -25.78125 12.34375 -25.78125 Z M 12.34375 -25.78125 "/></g></g></g><g fill="#ffd37a" fill-opacity="1"><g transform="translate(243.45508, 269.784828)"><g><path d="M 9.03125 0 L 2.546875 0 L 2.546875 -25.484375 L 9.03125 -25.484375 Z M 9.03125 0 "/></g></g></g><g fill="#ffd37a" fill-opacity="1"><g transform="translate(263.223136, 269.784828)"><g><path d="M 16.5625 0 L 9.859375 0 L -0.03125 -25.484375 L 6.875 -25.484375 L 13.390625 -6.734375 L 19.921875 -25.484375 L 26.578125 -25.484375 Z M 16.5625 0 "/></g></g></g><g fill="#ffd37a" fill-opacity="1"><g transform="translate(297.95306, 269.784828)"><g><path d="M 22.5 -20.390625 L 9.03125 -20.390625 L 9.03125 -15.328125 L 21.1875 -15.328125 L 21.1875 -10.234375 L 9.03125 -10.234375 L 9.03125 -5.09375 L 22.90625 -5.09375 L 22.90625 0 L 2.546875 0 L 2.546875 -25.484375 L 22.5 -25.484375 Z M 22.5 -20.390625 "/></g></g></g></svg>