<?xml version="1.0" standalone="no"?>
<!DOCTYPE svg PUBLIC "-//W3C//DTD SVG 20010904//EN"
 "http://www.w3.org/TR/2001/REC-SVG-20010904/DTD/svg10.dtd">
<svg version="1.0" xmlns="http://www.w3.org/2000/svg"
 width="180.000000pt" height="179.000000pt" viewBox="0 0 180.000000 179.000000"
 preserveAspectRatio="xMidYMid meet">

<g transform="translate(0.000000,179.000000) scale(0.100000,-0.100000)"
fill="#000000" stroke="none">
<path d="M816 1772 c-2 -1 -28 -5 -57 -7 -29 -2 -55 -8 -57 -14 -2 -6 -8 -9
-13 -5 -13 8 -139 -35 -139 -47 0 -6 6 -7 13 -3 8 5 7 2 -2 -10 -8 -9 -17 -13
-20 -8 -9 14 -53 7 -65 -10 -6 -8 -22 -19 -36 -23 -42 -13 -254 -195 -227
-195 4 0 -1 -9 -11 -19 -44 -48 -62 -74 -62 -90 0 -10 -3 -21 -7 -25 -5 -4 -8
-12 -8 -16 0 -5 -8 -15 -19 -23 -10 -8 -19 -27 -19 -45 -1 -18 -7 -32 -14 -32
-7 0 -13 -2 -13 -5 0 -3 -9 -40 -21 -83 -11 -42 -18 -89 -15 -104 3 -16 1 -28
-4 -28 -6 0 -10 -36 -10 -85 0 -51 4 -85 10 -85 6 0 8 -11 4 -25 -8 -31 25
-156 45 -173 9 -8 10 -11 4 -7 -7 3 -13 1 -13 -4 0 -6 7 -11 15 -11 17 0 20
25 5 35 -5 3 -10 13 -10 21 0 8 5 12 10 9 6 -4 8 -10 5 -15 -3 -4 -1 -10 4
-12 4 -1 12 -14 16 -27 4 -15 3 -21 -3 -17 -20 12 -31 -18 -15 -39 15 -20 15
-20 11 1 -3 12 0 21 7 21 9 0 10 -8 4 -31 -5 -16 -5 -32 0 -35 4 -4 16 -25 26
-48 11 -24 25 -43 32 -43 7 0 12 -6 10 -12 -1 -7 3 -12 9 -11 7 1 10 -6 7 -16
-3 -14 3 -20 24 -26 15 -5 31 -8 36 -7 4 1 7 -5 7 -13 0 -8 6 -15 13 -15 18 0
49 -34 40 -43 -3 -4 0 -7 8 -7 8 0 15 -10 16 -22 1 -12 11 -31 22 -42 18 -18
21 -18 27 -3 3 9 9 17 14 17 14 0 54 -41 56 -58 2 -10 -8 -4 -25 17 -19 23
-30 30 -35 22 -11 -17 10 -38 50 -53 19 -6 34 -14 34 -18 0 -3 20 -5 46 -5 36
0 42 -2 29 -11 -13 -10 -13 -13 -1 -24 9 -6 20 -9 26 -5 5 3 10 1 10 -4 0 -15
16 -14 33 3 8 9 24 12 36 9 29 -7 27 -21 -3 -16 -13 3 -27 0 -30 -6 -7 -10 2
-13 52 -15 9 -1 20 -5 23 -10 4 -4 26 -9 50 -11 24 -2 52 -6 61 -10 10 -4 55
-4 100 -1 110 7 111 7 99 19 -7 7 -23 7 -48 -1 -40 -12 -56 -9 -26 6 30 15
115 24 107 10 -5 -8 -2 -9 9 -5 42 17 48 16 12 -3 -47 -23 -35 -26 23 -6 22 8
43 12 46 9 3 -4 6 -1 6 6 0 8 -6 11 -16 7 -8 -3 -12 -2 -9 4 3 5 19 7 35 4 17
-4 48 1 75 12 43 16 46 19 29 31 -10 7 -13 13 -7 13 7 0 15 -5 18 -10 12 -19
31 -10 43 22 9 25 14 30 24 20 16 -16 30 -15 53 2 17 12 18 16 5 32 -9 11 -10
15 -2 10 7 -4 12 -2 13 6 0 7 4 5 8 -6 7 -18 8 -18 26 0 10 11 22 19 26 19 14
0 22 15 8 15 -8 1 1 7 19 15 18 8 32 18 30 22 -5 9 49 63 56 56 2 -3 9 4 15
15 6 11 7 23 3 27 -4 3 -2 5 3 3 6 -2 12 2 14 7 3 6 15 21 28 35 14 15 21 32
17 43 -4 13 0 20 15 24 23 6 58 84 46 104 -5 7 -4 10 2 6 6 -4 15 5 21 18 7
14 8 25 3 25 -5 0 -12 -6 -14 -13 -3 -6 -6 4 -6 23 0 29 1 32 10 17 15 -25 26
-13 34 36 3 23 9 50 12 61 3 10 1 16 -4 13 -6 -4 -8 4 -5 18 2 14 8 25 13 25
5 0 9 7 9 15 0 8 -4 15 -10 15 -5 0 -10 22 -10 48 0 26 -6 54 -12 61 -11 11
-10 13 2 9 10 -3 16 -20 18 -48 2 -26 7 -39 11 -32 7 11 2 62 -13 142 -2 14
-7 48 -11 75 -6 41 -9 46 -16 30 -7 -16 -8 -14 -5 10 7 47 -58 187 -78 168 -3
-4 -6 -1 -6 5 0 7 5 12 12 12 6 0 8 3 5 6 -4 4 -13 1 -22 -6 -18 -15 -20 1 -3
18 10 9 8 16 -5 29 -11 11 -17 13 -17 5 0 -7 -5 -12 -11 -12 -8 0 -8 5 1 15
10 12 9 19 -2 37 -20 30 -173 188 -182 188 -4 0 -15 -4 -25 -9 -13 -7 -18 -6
-18 4 0 8 7 11 16 8 10 -4 7 2 -7 17 -26 25 -52 32 -69 18 -7 -5 -14 -5 -17 1
-4 5 2 14 11 20 17 10 17 10 0 11 -10 0 -25 7 -33 15 -9 8 -36 20 -60 26 -24
6 -47 15 -50 20 -3 5 -10 9 -15 9 -6 0 -7 -4 -4 -10 3 -6 -1 -7 -9 -4 -9 3
-16 11 -16 17 0 6 -6 4 -12 -5 -9 -11 -19 -13 -33 -8 -18 8 -18 9 5 10 21 1
18 3 -15 15 -22 8 -51 15 -65 15 -14 0 -65 2 -113 3 -48 1 -90 1 -91 -1z m-31
-22 c3 -5 -3 -10 -14 -10 -11 0 -23 5 -26 10 -3 6 3 10 14 10 11 0 23 -4 26
-10z m112 4 c-3 -3 -12 -4 -19 -1 -8 3 -5 6 6 6 11 1 17 -2 13 -5z m153 -4
c-20 -13 -53 -13 -45 0 3 6 18 10 33 10 21 0 24 -2 12 -10z m-416 -39 c4 -5
-3 -7 -14 -4 -23 6 -26 13 -6 13 8 0 17 -4 20 -9z m596 -23 c0 -11 -12 -10
-30 2 -12 7 -10 9 8 7 12 0 22 -5 22 -9z m-711 -32 c-2 -2 -15 -9 -29 -15 -24
-11 -24 -11 -6 3 16 13 49 24 35 12z m385 -23 c15 -77 28 -184 24 -189 -3 -3
-18 -6 -34 -7 -21 -2 -29 3 -31 18 -10 61 -11 61 -48 57 -34 -4 -35 -4 -32
-51 2 -45 1 -46 -29 -49 l-30 -3 -13 83 c-7 46 -15 95 -18 111 -5 25 -3 27 30
27 32 0 35 -3 42 -36 5 -31 9 -35 28 -30 12 3 28 6 36 6 10 0 12 10 7 39 -5
36 -4 40 16 44 43 8 46 7 52 -20z m-444 -3 c0 -5 -7 -10 -16 -10 -8 0 -12 5
-9 10 3 6 10 10 16 10 5 0 9 -4 9 -10z m905 -18 c-3 -3 -11 0 -18 7 -9 10 -8
11 6 5 10 -3 15 -9 12 -12z m-185 -7 c30 -15 60 -61 60 -89 0 -9 -7 -34 -16
-56 -26 -66 -90 -87 -160 -54 -70 33 -82 128 -24 186 33 33 92 38 140 13z
m271 -34 c-10 -7 -8 -12 10 -25 13 -9 20 -16 15 -16 -4 0 -19 9 -32 19 -17 13
-20 21 -12 24 21 9 34 7 19 -2z m-1102 -28 c-6 -7 -18 -13 -26 -13 -8 0 -12
-4 -9 -9 8 -12 -23 -36 -32 -25 -4 5 -5 8 -3 7 2 -2 10 6 18 17 8 11 21 20 29
20 8 0 13 4 10 8 -3 5 1 9 9 9 11 0 12 -4 4 -14z m111 -58 c11 -14 7 -22 -25
-55 -30 -31 -36 -43 -27 -52 9 -9 20 -4 47 22 33 32 36 33 52 17 16 -16 14
-19 -22 -50 -34 -30 -38 -37 -26 -51 12 -14 18 -12 59 24 35 31 48 38 58 29
24 -20 16 -35 -52 -95 l-66 -58 -73 80 -73 79 61 63 c34 34 64 62 68 62 4 0
12 -7 19 -15z m915 -86 c-30 -32 -55 -62 -55 -68 0 -13 29 -41 43 -41 6 0 37
25 67 55 l56 55 25 -26 24 -26 -63 -59 c-80 -75 -114 -79 -173 -20 -58 58 -55
86 23 167 l61 64 24 -22 23 -21 -55 -58z m-1111 66 c-4 -8 -8 -15 -10 -15 -2
0 -4 7 -4 15 0 8 4 15 10 15 5 0 7 -7 4 -15z m-24 -36 c0 -5 -4 -7 -10 -4 -5
3 -10 1 -10 -5 0 -6 -5 -8 -11 -4 -8 4 -7 9 2 15 19 12 29 11 29 -2z m1365
-37 c-8 -9 -35 20 -28 31 4 6 11 3 19 -8 8 -10 12 -21 9 -23z m-1435 -47 c0
-8 -4 -15 -10 -15 -5 0 -7 7 -4 15 4 8 8 15 10 15 2 0 4 -7 4 -15z m-17 -40
c-3 -9 -8 -14 -10 -11 -3 3 -2 9 2 15 9 16 15 13 8 -4z m1535 -61 c-4 -3 -12
5 -18 18 -12 22 -12 22 6 6 10 -10 15 -20 12 -24z m-1558 16 c0 -3 -7 -15 -15
-26 -14 -18 -14 -18 -15 7 0 16 5 26 15 26 8 0 15 -3 15 -7z m201 -44 c50 -19
93 -37 95 -39 3 -2 -1 -17 -8 -31 -12 -28 -18 -29 -74 -11 -15 5 -23 0 -32
-20 -17 -38 -16 -40 28 -55 22 -7 40 -14 40 -15 0 -1 -5 -16 -11 -34 -8 -24
-16 -31 -28 -26 -9 4 -51 20 -95 36 -101 38 -97 34 -84 70 7 20 15 28 25 25
51 -20 60 -18 72 15 6 17 11 33 11 35 0 1 -13 5 -30 9 -16 4 -32 10 -35 15 -7
12 12 60 25 60 5 0 51 -15 101 -34z m671 -5 c2 -22 0 -37 -4 -35 -5 3 -8 10
-8 16 0 16 -31 48 -47 48 -10 0 -13 -22 -13 -94 0 -87 1 -94 22 -99 23 -6 64
11 115 49 17 13 37 24 43 24 6 0 25 7 42 16 23 12 28 18 17 24 -15 10 -13 11
56 29 62 17 63 13 15 -29 -28 -25 -47 -35 -51 -28 -5 7 -23 0 -53 -21 -26 -17
-52 -31 -57 -31 -9 0 -125 -64 -137 -75 -5 -5 141 -95 175 -107 18 -7 33 -16
33 -20 0 -4 14 -8 30 -8 17 0 45 -8 63 -17 l32 -17 -27 -6 c-22 -4 -25 -8 -18
-20 28 -43 -19 -21 -78 38 -34 34 -120 82 -147 82 -12 0 -15 -16 -15 -88 0
-55 4 -92 12 -100 9 -9 2 -12 -32 -12 -36 1 -41 3 -27 11 12 7 17 23 17 55 l0
45 -47 -3 c-48 -3 -48 -3 -51 -41 -2 -28 2 -43 15 -53 16 -12 13 -13 -27 -14
-34 0 -41 3 -32 12 8 8 12 45 12 100 0 83 -1 88 -21 88 -28 0 -141 -64 -156
-89 -7 -11 -27 -28 -44 -36 -29 -16 -30 -16 -20 3 12 23 6 32 -23 32 -17 1
-14 5 14 20 19 11 45 19 58 20 33 0 87 25 171 77 l74 46 -24 19 c-13 10 -51
32 -84 49 -33 16 -75 40 -93 51 -24 15 -36 18 -41 10 -5 -8 -22 4 -50 32 l-44
44 62 -15 c37 -9 58 -19 50 -23 -12 -8 5 -22 63 -51 14 -8 51 -28 80 -46 36
-21 61 -30 76 -26 21 5 22 11 22 100 0 85 -2 94 -17 91 -10 -2 -26 -19 -35
-38 l-18 -35 0 43 0 42 84 0 84 0 4 -39z m599 -11 c41 -22 63 -106 39 -151
-14 -26 -28 -24 -41 5 -7 15 -8 30 -1 42 12 23 5 44 -14 44 -10 0 -14 -15 -14
-59 0 -51 -3 -62 -22 -75 -59 -42 -128 16 -128 106 0 33 24 68 45 68 18 0 27
-47 14 -69 -14 -22 -6 -51 14 -51 10 0 16 17 19 57 4 43 10 61 28 75 26 21 34
22 61 8z m127 -15 c-3 -3 -9 2 -12 12 -6 14 -5 15 5 6 7 -7 10 -15 7 -18z
m-1645 -55 c-7 -25 -15 -26 -11 -2 1 9 -2 24 -7 32 -7 13 -6 13 7 2 9 -7 14
-21 11 -32z m1647 30 c0 -5 -5 -10 -11 -10 -5 0 -7 5 -4 10 3 6 8 10 11 10 2
0 4 -4 4 -10z m-1663 -92 c-3 -8 -6 -5 -6 6 -1 11 2 17 5 13 3 -3 4 -12 1 -19z
m1690 -15 c-4 -3 -2 -12 5 -20 8 -11 7 -12 -6 -7 -18 7 -22 34 -4 34 6 0 8 -3
5 -7z m-1709 -87 c-10 -43 -15 -53 -23 -44 -3 3 -1 17 4 31 6 14 8 43 5 64 -5
37 -5 37 9 14 11 -18 12 -34 5 -65z m142 -51 l0 -34 83 -3 82 -3 3 -32 3 -33
-85 0 -86 0 0 -36 c0 -33 -2 -35 -27 -32 -28 3 -28 3 -31 92 -3 106 -1 116 33
116 22 0 25 -4 25 -35z m1493 5 c5 -4 5 -46 1 -94 -6 -81 -8 -87 -28 -84 -19
3 -21 9 -19 61 2 50 0 57 -18 57 -16 0 -19 -7 -19 -50 0 -47 -1 -50 -26 -50
-26 0 -27 1 -21 49 5 39 3 51 -9 55 -27 10 -34 -3 -34 -60 0 -51 -1 -54 -25
-54 -23 0 -25 3 -25 49 0 26 3 69 6 95 l7 46 101 -6 c55 -4 105 -10 109 -14z
m-1639 -159 l-15 -26 5 38 c3 21 1 49 -4 62 -5 12 -6 26 -2 30 4 4 12 -12 19
-35 10 -36 10 -47 -3 -69z m1710 -36 c-4 -8 -8 -15 -10 -15 -2 0 -4 7 -4 15 0
8 4 15 10 15 5 0 7 -7 4 -15z m-1689 -5 c-3 -5 -12 -10 -18 -10 -7 0 -6 4 3
10 19 12 23 12 15 0z m1682 -62 c-3 -8 -6 -5 -6 6 -1 11 2 17 5 13 3 -3 4 -12
1 -19z m-1079 -10 c20 -20 14 -28 -20 -26 -28 3 -34 -1 -36 -20 -4 -25 21 -40
41 -24 7 6 18 7 26 3 18 -12 -13 -41 -44 -41 -49 0 -75 69 -39 104 18 19 55
21 72 4z m112 -33 c0 -43 1 -45 30 -45 20 0 30 -5 30 -15 0 -11 -12 -15 -45
-15 l-45 0 0 60 c0 47 3 60 15 60 11 0 15 -12 15 -45z m132 3 c2 -31 8 -44 21
-46 14 -3 17 4 17 43 0 39 3 46 18 43 43 -8 16 -118 -29 -118 -44 0 -59 18
-59 70 0 37 4 50 14 50 10 0 16 -14 18 -42z m204 28 c24 -18 10 -34 -16 -18
-10 6 -22 8 -25 3 -3 -5 9 -14 25 -20 22 -7 30 -16 30 -34 0 -40 -71 -53 -90
-17 -9 17 -8 20 10 20 11 0 20 -4 20 -10 0 -5 7 -10 15 -10 26 0 16 21 -15 31
-22 8 -30 17 -30 34 0 35 41 46 76 21z m104 -46 c0 -47 -3 -60 -15 -60 -12 0
-15 13 -15 60 0 47 3 60 15 60 12 0 15 -13 15 -60z m310 45 c0 -9 -9 -15 -25
-15 -14 0 -25 -4 -25 -10 0 -5 11 -10 25 -10 14 0 25 -4 25 -10 0 -5 -11 -10
-25 -10 -33 0 -32 -18 2 -22 14 -2 28 -9 31 -15 2 -9 -11 -13 -47 -13 l-51 0
0 53 c0 30 3 57 7 60 3 4 24 7 45 7 27 0 38 -4 38 -15z m-1170 -5 c0 -5 -13
-10 -30 -10 -16 0 -30 -4 -30 -10 0 -5 14 -10 30 -10 17 0 30 -4 30 -10 0 -5
-13 -10 -30 -10 -16 0 -30 -4 -30 -10 0 -5 14 -10 30 -10 20 0 30 -5 30 -15 0
-11 -12 -15 -45 -15 l-45 0 0 55 0 55 45 0 c25 0 45 -4 45 -10z m109 -7 c9
-17 10 -17 16 0 4 9 16 17 27 17 19 0 20 -1 3 -26 -15 -23 -15 -27 -1 -49 9
-14 16 -27 16 -30 0 -11 -24 -4 -42 11 -16 16 -18 16 -24 0 -3 -9 -15 -16 -25
-16 -23 0 -23 4 -3 35 15 23 15 27 0 50 -16 24 -15 25 3 25 11 0 24 -8 30 -17z
m852 -20 l12 -38 12 35 c6 19 19 36 28 38 21 4 21 7 -2 -53 -13 -35 -25 -51
-40 -53 -12 -2 -21 -1 -21 2 0 3 -9 28 -20 56 -19 49 -19 50 -1 50 14 0 23
-12 32 -37z m-1187 -89 c3 -8 2 -12 -4 -9 -6 3 -10 10 -10 16 0 14 7 11 14 -7z
m176 -79 c11 -18 19 -39 18 -45 -2 -7 3 -15 10 -17 9 -4 11 2 6 24 -6 27 -6
27 9 8 23 -28 22 -66 0 -58 -13 4 -15 3 -7 -6 6 -6 20 -13 32 -16 19 -3 21 -1
12 15 -17 32 -11 44 10 17 24 -30 27 -72 5 -63 -26 10 -16 -3 15 -19 26 -13
30 -14 30 -1 0 8 -4 18 -10 21 -5 3 -10 14 -10 23 1 16 1 16 11 -1 5 -9 43
-39 82 -66 67 -45 138 -75 242 -101 57 -15 82 -35 65 -55 -7 -8 -26 -15 -43
-15 -34 0 -107 19 -121 32 -6 4 -16 8 -24 8 -15 0 -133 57 -142 69 -3 3 -18
15 -34 25 -60 38 -136 114 -169 169 -10 17 -13 26 -6 20 26 -25 32 -12 7 15
-14 15 -29 38 -33 52 -7 22 -6 23 8 11 9 -7 26 -28 37 -46z m1221 23 c-5 -13
-16 -30 -25 -37 -9 -7 -16 -18 -16 -23 0 -6 7 -4 16 3 12 10 10 3 -5 -21 -27
-46 -117 -136 -161 -163 -19 -12 -41 -27 -48 -34 -7 -7 -24 -16 -38 -19 -13
-3 -24 -9 -24 -13 0 -4 -17 -13 -37 -20 -21 -7 -47 -16 -58 -21 -78 -33 -145
-39 -165 -15 -17 20 8 40 65 55 85 22 121 34 143 47 12 7 22 11 22 8 0 -10
149 95 159 112 14 24 14 -2 1 -27 -9 -16 -7 -18 12 -15 12 3 26 9 32 15 8 8 6
9 -6 5 -25 -10 -24 29 2 62 21 27 27 15 10 -18 -13 -24 7 -26 36 -3 16 13 16
15 2 10 -23 -7 -24 31 -2 59 16 19 16 19 11 -8 -2 -17 0 -26 6 -24 6 2 11 13
12 24 2 22 53 98 61 90 3 -2 0 -15 -5 -29z m-1339 -40 l22 -32 -26 19 c-15 11
-28 26 -28 33 0 19 7 15 32 -20z m1442 7 c-4 -8 -11 -15 -16 -15 -6 0 -5 6 2
15 7 8 14 15 16 15 2 0 1 -7 -2 -15z m-1404 -65 c0 -5 -4 -10 -10 -10 -5 0
-10 5 -10 10 0 6 5 10 10 10 6 0 10 -4 10 -10z m1270 -94 c0 -2 -7 -7 -16 -10
-8 -3 -12 -2 -9 4 6 10 25 14 25 6z m-582 -86 c7 -11 19 -20 27 -20 19 0 19
-14 1 -29 -8 -7 -11 -22 -8 -39 5 -24 3 -26 -11 -13 -11 8 -27 11 -43 7 -23
-6 -26 -4 -21 13 2 11 -2 29 -10 40 -12 19 -12 21 1 21 9 0 21 9 28 20 7 11
15 20 18 20 3 0 11 -9 18 -20z m-408 -50 c0 -5 -5 -10 -11 -10 -5 0 -7 5 -4
10 3 6 8 10 11 10 2 0 4 -4 4 -10z m220 -79 c0 -6 -5 -13 -12 -17 -6 -4 -8 -3
-4 4 3 6 -2 13 -11 15 -14 4 -13 5 5 6 12 0 22 -3 22 -8z m55 -21 c-3 -5 -15
-10 -26 -10 -11 0 -17 5 -14 10 3 6 15 10 26 10 11 0 17 -4 14 -10z"/>
<path d="M1096 1554 c-19 -18 -30 -58 -23 -78 3 -8 15 -19 26 -25 43 -23 92
66 56 102 -21 21 -39 21 -59 1z"/>
<path d="M892 1029 c18 -7 33 -7 45 0 14 8 9 10 -27 10 -42 -1 -43 -1 -18 -10z"/>
<path d="M865 963 l-30 -17 30 -6 c24 -4 27 -7 12 -13 -14 -5 -17 -15 -15 -39
3 -32 5 -33 51 -36 l47 -3 0 40 c0 29 -5 41 -17 44 -10 3 -2 5 17 6 l35 2 -35
19 c-43 23 -57 24 -95 3z"/>
<path d="M473 255 c-10 -10 -9 -15 4 -19 22 -9 37 8 21 21 -9 8 -16 7 -25 -2z"/>
<path d="M550 216 c14 -18 13 -18 -10 -12 -21 6 -22 5 -7 -4 9 -6 21 -9 26 -5
5 3 12 -1 14 -7 3 -8 6 -8 6 -2 1 6 -9 19 -21 30 -22 18 -22 18 -8 0z"/>
<path d="M609 187 c12 -15 11 -17 -5 -18 -18 0 -18 -1 1 -9 49 -21 61 -3 18
26 -24 15 -26 15 -14 1z"/>
<path d="M689 151 c11 -7 11 -9 0 -14 -10 -4 -9 -6 3 -6 23 -1 32 15 12 23
-23 9 -31 7 -15 -3z"/>
<path d="M758 138 c5 -5 16 -8 23 -6 8 3 3 7 -10 11 -17 4 -21 3 -13 -5z"/>
<path d="M763 113 c9 -2 23 -2 30 0 6 3 -1 5 -18 5 -16 0 -22 -2 -12 -5z"/>
<path d="M1299 254 c-16 -19 -4 -30 20 -18 16 7 17 11 6 21 -10 10 -16 9 -26
-3z"/>
<path d="M1235 210 c-10 -11 -15 -23 -12 -27 4 -3 7 -1 7 6 0 7 4 9 10 6 5 -3
18 -1 27 5 15 9 14 10 -7 4 -22 -6 -23 -5 -11 10 19 23 8 20 -14 -4z"/>
<path d="M1170 180 c-30 -23 -21 -36 17 -22 19 7 22 11 9 11 -15 1 -16 4 -6
16 17 20 10 19 -20 -5z"/>
<path d="M1090 150 c-12 -8 -12 -10 2 -15 10 -4 23 -5 30 -2 7 3 4 6 -7 6 -17
1 -17 3 -5 11 8 5 11 10 5 10 -5 0 -17 -4 -25 -10z"/>
<path d="M1025 140 c-16 -7 -17 -9 -3 -9 9 -1 20 4 23 9 7 11 7 11 -20 0z"/>
<path d="M1000 116 c0 -2 13 -6 29 -8 17 -2 28 -1 25 4 -5 8 -54 12 -54 4z"/>
<path d="M1660 459 c0 -5 5 -7 10 -4 6 3 10 8 10 11 0 2 -4 4 -10 4 -5 0 -10
-5 -10 -11z"/>
<path d="M265 280 c32 -33 61 -57 64 -55 2 3 -3 13 -12 23 -10 10 -14 21 -11
24 3 3 -1 5 -10 5 -8 -1 -16 3 -17 8 -2 10 -58 55 -68 55 -3 0 21 -27 54 -60z"/>
<path d="M1317 129 c-4 -16 -3 -18 9 -8 7 6 11 15 8 20 -8 13 -11 11 -17 -12z"/>
<path d="M508 103 c7 -3 16 -2 19 1 4 3 -2 6 -13 5 -11 0 -14 -3 -6 -6z"/>
</g>
</svg>
